<svg width="16" height="20" viewBox="0 0 16 20" fill="none" xmlns="http://www.w3.org/2000/svg">
<g clip-path="url(#clip0_11_126)">
<path d="M8.00356 5.88965C5.73214 5.88965 3.89999 7.72322 3.89999 9.99643C3.89999 12.2696 5.73214 14.1032 8.00356 14.1032C10.275 14.1032 12.1071 12.2696 12.1071 9.99643C12.1071 7.72322 10.275 5.88965 8.00356 5.88965ZM8.00356 12.6664C6.53571 12.6664 5.33571 11.469 5.33571 9.99643C5.33571 8.52385 6.53214 7.32648 8.00356 7.32648C9.47499 7.32648 10.6714 8.52385 10.6714 9.99643C10.6714 11.469 9.47142 12.6664 8.00356 12.6664ZM13.2321 5.72166C13.2321 6.25422 12.8036 6.67955 12.275 6.67955C11.7429 6.67955 11.3179 6.25064 11.3179 5.72166C11.3179 5.19268 11.7464 4.76377 12.275 4.76377C12.8036 4.76377 13.2321 5.19268 13.2321 5.72166ZM15.95 6.69385C15.8893 5.4107 15.5964 4.2741 14.6571 3.33766C13.7214 2.40121 12.5857 2.10813 11.3036 2.04379C9.98214 1.96873 6.02142 1.96873 4.69999 2.04379C3.42142 2.10455 2.28571 2.39764 1.34642 3.33408C0.407136 4.27053 0.11785 5.40713 0.0535644 6.69027C-0.0214355 8.01273 -0.0214355 11.9765 0.0535644 13.299C0.114279 14.5821 0.407136 15.7188 1.34642 16.6552C2.28571 17.5916 3.41785 17.8847 4.69999 17.9491C6.02142 18.0241 9.98214 18.0241 11.3036 17.9491C12.5857 17.8883 13.7214 17.5952 14.6571 16.6552C15.5928 15.7188 15.8857 14.5821 15.95 13.299C16.025 11.9765 16.025 8.01631 15.95 6.69385ZM14.2428 14.718C13.9643 15.4185 13.425 15.9582 12.7214 16.2406C11.6679 16.6588 9.16785 16.5623 8.00356 16.5623C6.83928 16.5623 4.33571 16.6552 3.28571 16.2406C2.58571 15.9618 2.04642 15.4221 1.76428 14.718C1.34642 13.6636 1.44285 11.1616 1.44285 9.99643C1.44285 8.83123 1.34999 6.3257 1.76428 5.27488C2.04285 4.57434 2.58214 4.03463 3.28571 3.75227C4.33928 3.33408 6.83928 3.43059 8.00356 3.43059C9.16785 3.43059 11.6714 3.33766 12.7214 3.75227C13.4214 4.03105 13.9607 4.57076 14.2428 5.27488C14.6607 6.32928 14.5643 8.83123 14.5643 9.99643C14.5643 11.1616 14.6607 13.6671 14.2428 14.718Z" fill="black" fill-opacity="0.75"/>
</g>
<defs>
<clipPath id="clip0_11_126">
<rect width="16" height="18.3" fill="white" transform="translate(0 0.849998)"/>
</clipPath>
</defs>
</svg>
