<svg width="81" height="29" viewBox="0 0 81 29" fill="none" xmlns="http://www.w3.org/2000/svg">
<g filter="url(#filter0_d_7_67)">
<path opacity="0.9" d="M27.275 15V4.35H30.965C32.105 4.35 33.055 4.59 33.815 5.07C34.585 5.54 35.16 6.18 35.54 6.99C35.92 7.79 36.11 8.68 36.11 9.66C36.11 10.74 35.9 11.68 35.48 12.48C35.06 13.28 34.465 13.9 33.695 14.34C32.925 14.78 32.015 15 30.965 15H27.275ZM34.745 9.66C34.745 8.86 34.595 8.15 34.295 7.53C34.005 6.91 33.58 6.425 33.02 6.075C32.46 5.725 31.775 5.55 30.965 5.55H28.625V13.8H30.965C31.785 13.8 32.475 13.62 33.035 13.26C33.595 12.89 34.02 12.395 34.31 11.775C34.6 11.145 34.745 10.44 34.745 9.66ZM41.8673 15.15C41.2773 15.15 40.7373 15.045 40.2473 14.835C39.7673 14.615 39.3473 14.32 38.9873 13.95C38.6373 13.57 38.3623 13.135 38.1623 12.645C37.9723 12.155 37.8773 11.635 37.8773 11.085C37.8773 10.345 38.0473 9.67 38.3873 9.06C38.7273 8.45 39.1973 7.96 39.7973 7.59C40.4073 7.22 41.1023 7.035 41.8823 7.035C42.6723 7.035 43.3573 7.225 43.9373 7.605C44.5273 7.975 44.9823 8.465 45.3023 9.075C45.6323 9.675 45.7973 10.325 45.7973 11.025C45.7973 11.125 45.7923 11.225 45.7823 11.325C45.7823 11.415 45.7773 11.485 45.7673 11.535H39.2723C39.3123 12.045 39.4523 12.5 39.6923 12.9C39.9423 13.29 40.2623 13.6 40.6523 13.83C41.0423 14.05 41.4623 14.16 41.9123 14.16C42.3923 14.16 42.8423 14.04 43.2623 13.8C43.6923 13.56 43.9873 13.245 44.1473 12.855L45.2873 13.17C45.1173 13.55 44.8623 13.89 44.5223 14.19C44.1923 14.49 43.7973 14.725 43.3373 14.895C42.8873 15.065 42.3973 15.15 41.8673 15.15ZM39.2273 10.62H44.5673C44.5273 10.11 44.3823 9.66 44.1323 9.27C43.8823 8.88 43.5623 8.575 43.1723 8.355C42.7823 8.135 42.3523 8.025 41.8823 8.025C41.4223 8.025 40.9973 8.135 40.6073 8.355C40.2173 8.575 39.8973 8.88 39.6473 9.27C39.4073 9.66 39.2673 10.11 39.2273 10.62ZM50.5496 15.15C49.8996 15.15 49.2896 15.045 48.7196 14.835C48.1496 14.615 47.6596 14.29 47.2496 13.86L47.7596 12.93C48.2096 13.35 48.6596 13.65 49.1096 13.83C49.5596 14.01 50.0196 14.1 50.4896 14.1C51.0296 14.1 51.4696 14 51.8096 13.8C52.1496 13.59 52.3196 13.285 52.3196 12.885C52.3196 12.595 52.2296 12.38 52.0496 12.24C51.8796 12.1 51.6346 11.985 51.3146 11.895C50.9946 11.795 50.6146 11.685 50.1746 11.565C49.6346 11.405 49.1796 11.235 48.8096 11.055C48.4396 10.875 48.1596 10.65 47.9696 10.38C47.7796 10.11 47.6846 9.77 47.6846 9.36C47.6846 8.86 47.8146 8.44 48.0746 8.1C48.3346 7.75 48.6896 7.485 49.1396 7.305C49.5996 7.125 50.1196 7.035 50.6996 7.035C51.2796 7.035 51.8046 7.125 52.2746 7.305C52.7446 7.485 53.1496 7.75 53.4896 8.1L52.8896 9.015C52.5796 8.695 52.2396 8.46 51.8696 8.31C51.4996 8.15 51.0846 8.07 50.6246 8.07C50.3546 8.07 50.0896 8.105 49.8296 8.175C49.5696 8.235 49.3546 8.35 49.1846 8.52C49.0146 8.68 48.9296 8.91 48.9296 9.21C48.9296 9.46 48.9946 9.66 49.1246 9.81C49.2646 9.95 49.4646 10.07 49.7246 10.17C49.9946 10.27 50.3196 10.38 50.6996 10.5C51.2896 10.67 51.7996 10.84 52.2296 11.01C52.6696 11.18 53.0096 11.4 53.2496 11.67C53.4896 11.94 53.6096 12.315 53.6096 12.795C53.6096 13.535 53.3296 14.115 52.7696 14.535C52.2096 14.945 51.4696 15.15 50.5496 15.15ZM55.7888 15V7.17H57.1088V15H55.7888ZM55.7888 5.7V4.05H57.1088V5.7H55.7888ZM62.9659 15.09C62.4359 15.09 61.9459 14.985 61.4959 14.775C61.0559 14.555 60.6759 14.26 60.3559 13.89C60.0359 13.51 59.7859 13.08 59.6059 12.6C59.4359 12.12 59.3509 11.62 59.3509 11.1C59.3509 10.55 59.4359 10.03 59.6059 9.54C59.7859 9.05 60.0359 8.62 60.3559 8.25C60.6859 7.87 61.0709 7.575 61.5109 7.365C61.9509 7.145 62.4409 7.035 62.9809 7.035C63.6309 7.035 64.1959 7.195 64.6759 7.515C65.1659 7.835 65.5759 8.24 65.9059 8.73V7.17H67.0759V14.91C67.0759 15.65 66.8959 16.275 66.5359 16.785C66.1859 17.295 65.7059 17.68 65.0959 17.94C64.4959 18.21 63.8259 18.345 63.0859 18.345C62.2059 18.345 61.4859 18.19 60.9259 17.88C60.3659 17.57 59.9009 17.15 59.5309 16.62L60.2959 15.945C60.6059 16.405 61.0059 16.75 61.4959 16.98C61.9959 17.21 62.5259 17.325 63.0859 17.325C63.5659 17.325 64.0059 17.235 64.4059 17.055C64.8159 16.885 65.1409 16.62 65.3809 16.26C65.6309 15.9 65.7559 15.45 65.7559 14.91V13.53C65.4659 14.01 65.0659 14.39 64.5559 14.67C64.0559 14.95 63.5259 15.09 62.9659 15.09ZM63.3709 14.01C63.6509 14.01 63.9209 13.96 64.1809 13.86C64.4409 13.76 64.6809 13.63 64.9009 13.47C65.1209 13.3 65.3059 13.11 65.4559 12.9C65.6059 12.69 65.7059 12.475 65.7559 12.255V10.005C65.6159 9.645 65.4159 9.33 65.1559 9.06C64.8959 8.78 64.6009 8.565 64.2709 8.415C63.9409 8.255 63.6009 8.175 63.2509 8.175C62.8509 8.175 62.4909 8.26 62.1709 8.43C61.8609 8.6 61.5959 8.83 61.3759 9.12C61.1559 9.4 60.9859 9.715 60.8659 10.065C60.7459 10.415 60.6859 10.77 60.6859 11.13C60.6859 11.52 60.7559 11.89 60.8959 12.24C61.0359 12.58 61.2259 12.885 61.4659 13.155C61.7059 13.425 61.9909 13.635 62.3209 13.785C62.6509 13.935 63.0009 14.01 63.3709 14.01ZM76.6012 15H75.2812V10.62C75.2812 9.79 75.1512 9.185 74.8912 8.805C74.6412 8.415 74.2562 8.22 73.7362 8.22C73.3762 8.22 73.0162 8.31 72.6562 8.49C72.3062 8.67 71.9912 8.915 71.7112 9.225C71.4412 9.525 71.2462 9.875 71.1262 10.275V15H69.8062V7.17H71.0062V8.85C71.2162 8.48 71.4862 8.16 71.8162 7.89C72.1462 7.62 72.5212 7.41 72.9412 7.26C73.3612 7.11 73.8012 7.035 74.2612 7.035C74.7112 7.035 75.0862 7.12 75.3862 7.29C75.6962 7.45 75.9362 7.68 76.1062 7.98C76.2862 8.27 76.4112 8.615 76.4812 9.015C76.5612 9.415 76.6012 9.85 76.6012 10.32V15Z" fill="black"/>
<path d="M7.465 15.175L14.71 6.28H7.585V5.35H15.925V6.175L8.77 15.07H15.91V16H7.465V15.175ZM17.7686 16V5.35H18.8186V16H17.7686Z" fill="black" fill-opacity="0.6"/>
<path fill-rule="evenodd" clip-rule="evenodd" d="M18 0H4V16C4 18.7614 6.23858 21 9 21H23V5C23 2.23858 20.7614 0 18 0ZM17.4667 2.8H6.53333V15.2C6.53333 16.8569 7.87647 18.2 9.53332 18.2H20.4667V5.8C20.4667 4.14315 19.1235 2.8 17.4667 2.8Z" fill="#F4E344"/>
</g>
<defs>
<filter id="filter0_d_7_67" x="0" y="0" width="82" height="29" filterUnits="userSpaceOnUse" color-interpolation-filters="sRGB">
<feFlood flood-opacity="0" result="BackgroundImageFix"/>
<feColorMatrix in="SourceAlpha" type="matrix" values="0 0 0 0 0 0 0 0 0 0 0 0 0 0 0 0 0 0 127 0" result="hardAlpha"/>
<feOffset dy="4"/>
<feGaussianBlur stdDeviation="2"/>
<feComposite in2="hardAlpha" operator="out"/>
<feColorMatrix type="matrix" values="0 0 0 0 0 0 0 0 0 0 0 0 0 0 0 0 0 0 0.25 0"/>
<feBlend mode="normal" in2="BackgroundImageFix" result="effect1_dropShadow_7_67"/>
<feBlend mode="normal" in="SourceGraphic" in2="effect1_dropShadow_7_67" result="shape"/>
</filter>
</defs>
</svg>
