<svg width="109" height="30" viewBox="0 0 109 30" fill="none" xmlns="http://www.w3.org/2000/svg">
<path opacity="0.9" d="M34.2754 22.3362V6.71618H39.6874C41.3594 6.71618 42.7527 7.06818 43.8674 7.77218C44.9967 8.46151 45.8401 9.40018 46.3974 10.5882C46.9547 11.7615 47.2334 13.0668 47.2334 14.5042C47.2334 16.0882 46.9254 17.4668 46.3094 18.6402C45.6934 19.8135 44.8207 20.7228 43.6914 21.3682C42.5621 22.0135 41.2274 22.3362 39.6874 22.3362H34.2754ZM45.2314 14.5042C45.2314 13.3308 45.0114 12.2895 44.5714 11.3802C44.1461 10.4708 43.5227 9.75951 42.7014 9.24618C41.8801 8.73285 40.8754 8.47618 39.6874 8.47618H36.2554V20.5762H39.6874C40.8901 20.5762 41.9021 20.3122 42.7234 19.7842C43.5447 19.2415 44.1681 18.5155 44.5934 17.6062C45.0187 16.6822 45.2314 15.6482 45.2314 14.5042ZM55.6774 22.5562C54.8121 22.5562 54.0201 22.4022 53.3014 22.0942C52.5974 21.7715 51.9814 21.3388 51.4534 20.7962C50.9401 20.2388 50.5368 19.6008 50.2434 18.8822C49.9648 18.1635 49.8254 17.4008 49.8254 16.5942C49.8254 15.5088 50.0748 14.5188 50.5734 13.6242C51.0721 12.7295 51.7614 12.0108 52.6414 11.4682C53.5361 10.9255 54.5554 10.6542 55.6994 10.6542C56.8581 10.6542 57.8628 10.9328 58.7134 11.4902C59.5788 12.0328 60.2461 12.7515 60.7154 13.6462C61.1994 14.5262 61.4414 15.4795 61.4414 16.5062C61.4414 16.6528 61.4341 16.7995 61.4194 16.9462C61.4194 17.0782 61.4121 17.1808 61.3974 17.2542H51.8714C51.9301 18.0022 52.1354 18.6695 52.4874 19.2562C52.8541 19.8282 53.3234 20.2828 53.8954 20.6202C54.4674 20.9428 55.0834 21.1042 55.7434 21.1042C56.4474 21.1042 57.1074 20.9282 57.7234 20.5762C58.3541 20.2242 58.7868 19.7622 59.0214 19.1902L60.6934 19.6522C60.4441 20.2095 60.0701 20.7082 59.5714 21.1482C59.0874 21.5882 58.5081 21.9328 57.8334 22.1822C57.1734 22.4315 56.4548 22.5562 55.6774 22.5562ZM51.8054 15.9122H59.6374C59.5788 15.1642 59.3661 14.5042 58.9994 13.9322C58.6328 13.3602 58.1634 12.9128 57.5914 12.5902C57.0194 12.2675 56.3888 12.1062 55.6994 12.1062C55.0248 12.1062 54.4014 12.2675 53.8294 12.5902C53.2574 12.9128 52.7881 13.3602 52.4214 13.9322C52.0694 14.5042 51.8641 15.1642 51.8054 15.9122ZM68.4115 22.5562C67.4582 22.5562 66.5635 22.4022 65.7275 22.0942C64.8915 21.7715 64.1728 21.2948 63.5715 20.6642L64.3195 19.3002C64.9795 19.9162 65.6395 20.3562 66.2995 20.6202C66.9595 20.8842 67.6342 21.0162 68.3235 21.0162C69.1155 21.0162 69.7608 20.8695 70.2595 20.5762C70.7582 20.2682 71.0075 19.8208 71.0075 19.2342C71.0075 18.8088 70.8755 18.4935 70.6115 18.2882C70.3622 18.0828 70.0028 17.9142 69.5335 17.7822C69.0642 17.6355 68.5068 17.4742 67.8615 17.2982C67.0695 17.0635 66.4022 16.8142 65.8595 16.5502C65.3168 16.2862 64.9062 15.9562 64.6275 15.5602C64.3488 15.1642 64.2095 14.6655 64.2095 14.0642C64.2095 13.3308 64.4002 12.7148 64.7815 12.2162C65.1628 11.7028 65.6835 11.3142 66.3435 11.0502C67.0182 10.7862 67.7808 10.6542 68.6315 10.6542C69.4822 10.6542 70.2522 10.7862 70.9415 11.0502C71.6308 11.3142 72.2248 11.7028 72.7235 12.2162L71.8435 13.5582C71.3888 13.0888 70.8902 12.7442 70.3475 12.5242C69.8048 12.2895 69.1962 12.1722 68.5215 12.1722C68.1255 12.1722 67.7368 12.2235 67.3555 12.3262C66.9742 12.4142 66.6588 12.5828 66.4095 12.8322C66.1602 13.0668 66.0355 13.4042 66.0355 13.8442C66.0355 14.2108 66.1308 14.5042 66.3215 14.7242C66.5268 14.9295 66.8202 15.1055 67.2015 15.2522C67.5975 15.3988 68.0742 15.5602 68.6315 15.7362C69.4968 15.9855 70.2448 16.2348 70.8755 16.4842C71.5208 16.7335 72.0195 17.0562 72.3715 17.4522C72.7235 17.8482 72.8995 18.3982 72.8995 19.1022C72.8995 20.1875 72.4888 21.0382 71.6675 21.6542C70.8462 22.2555 69.7608 22.5562 68.4115 22.5562ZM76.0957 22.3362V10.8522H78.0317V22.3362H76.0957ZM76.0957 8.69618V6.27618H78.0317V8.69618H76.0957ZM86.622 22.4682C85.8447 22.4682 85.126 22.3142 84.466 22.0062C83.8207 21.6835 83.2633 21.2508 82.794 20.7082C82.3247 20.1508 81.958 19.5202 81.694 18.8162C81.4447 18.1122 81.32 17.3788 81.32 16.6162C81.32 15.8095 81.4447 15.0468 81.694 14.3282C81.958 13.6095 82.3247 12.9788 82.794 12.4362C83.278 11.8788 83.8427 11.4462 84.488 11.1382C85.1333 10.8155 85.852 10.6542 86.644 10.6542C87.5973 10.6542 88.426 10.8888 89.13 11.3582C89.8487 11.8275 90.45 12.4215 90.934 13.1402V10.8522H92.65V22.2042C92.65 23.2895 92.386 24.2062 91.858 24.9542C91.3447 25.7022 90.6407 26.2668 89.746 26.6482C88.866 27.0442 87.8833 27.2422 86.798 27.2422C85.5073 27.2422 84.4513 27.0148 83.63 26.5602C82.8087 26.1055 82.1267 25.4895 81.584 24.7122L82.706 23.7222C83.1607 24.3968 83.7473 24.9028 84.466 25.2402C85.1993 25.5775 85.9767 25.7462 86.798 25.7462C87.502 25.7462 88.1473 25.6142 88.734 25.3502C89.3353 25.1008 89.812 24.7122 90.164 24.1842C90.5307 23.6562 90.714 22.9962 90.714 22.2042V20.1802C90.2887 20.8842 89.702 21.4415 88.954 21.8522C88.2207 22.2628 87.4433 22.4682 86.622 22.4682ZM87.216 20.8842C87.6267 20.8842 88.0227 20.8108 88.404 20.6642C88.7853 20.5175 89.1373 20.3268 89.46 20.0922C89.7827 19.8428 90.054 19.5642 90.274 19.2562C90.494 18.9482 90.6407 18.6328 90.714 18.3102V15.0102C90.5087 14.4822 90.2153 14.0202 89.834 13.6242C89.4527 13.2135 89.02 12.8982 88.536 12.6782C88.052 12.4435 87.5533 12.3262 87.04 12.3262C86.4533 12.3262 85.9253 12.4508 85.456 12.7002C85.0013 12.9495 84.6127 13.2868 84.29 13.7122C83.9673 14.1228 83.718 14.5848 83.542 15.0982C83.366 15.6115 83.278 16.1322 83.278 16.6602C83.278 17.2322 83.3807 17.7748 83.586 18.2882C83.7913 18.7868 84.07 19.2342 84.422 19.6302C84.774 20.0262 85.192 20.3342 85.676 20.5542C86.16 20.7742 86.6733 20.8842 87.216 20.8842ZM106.621 22.3362H104.685V15.9122C104.685 14.6948 104.494 13.8075 104.113 13.2502C103.746 12.6782 103.181 12.3922 102.419 12.3922C101.891 12.3922 101.363 12.5242 100.835 12.7882C100.321 13.0522 99.8592 13.4115 99.4485 13.8662C99.0525 14.3062 98.7665 14.8195 98.5905 15.4062V22.3362H96.6545V10.8522H98.4145V13.3162C98.7225 12.7735 99.1185 12.3042 99.6025 11.9082C100.087 11.5122 100.637 11.2042 101.253 10.9842C101.869 10.7642 102.514 10.6542 103.189 10.6542C103.849 10.6542 104.399 10.7788 104.839 11.0282C105.293 11.2628 105.645 11.6002 105.895 12.0402C106.159 12.4655 106.342 12.9715 106.445 13.5582C106.562 14.1448 106.621 14.7828 106.621 15.4722V22.3362Z" fill="white" fill-opacity="0.6"/>
<path d="M5.10091 22.4934L15.7269 9.44737H5.27691V8.08337H17.5089V9.29337L7.01491 22.3394H17.4869V23.7034H5.10091V22.4934ZM20.2129 23.7034V8.08337H21.7529V23.7034H20.2129Z" fill="white" fill-opacity="0.6"/>
<path fill-rule="evenodd" clip-rule="evenodd" d="M22.9865 0.662598H0V24.3769C0 27.1383 2.23857 29.3769 4.99999 29.3769H27.9865V5.6626C27.9865 2.90117 25.7479 0.662598 22.9865 0.662598ZM21.2549 4.49118H3.73152V22.5483C3.73152 24.2052 5.07467 25.5483 6.73152 25.5483H24.2549V7.49118C24.2549 5.83432 22.9118 4.49118 21.2549 4.49118Z" fill="#F4E344"/>
</svg>
